<svg width="85" height="38" viewBox="0 0 85 38" fill="none" xmlns="http://www.w3.org/2000/svg">
<path d="M9.672 0.562553C9.578 1.26565 9.51601 1.98446 9.48401 2.71886C9.45301 3.43756 9.43799 4.18756 9.43799 4.96886C9.43799 6.35946 9.50801 7.78125 9.64801 9.23445C9.78901 10.672 10 12.1095 10.281 13.547C10.562 14.9845 10.914 16.3985 11.336 17.7892C11.758 19.1642 12.242 20.4767 12.789 21.7267C13.352 22.9767 13.977 24.1407 14.664 25.2189C15.367 26.297 16.141 27.2501 16.984 28.0782C17.906 27.1251 18.648 26.0313 19.211 24.797C19.789 23.547 20.234 22.25 20.547 20.9062C20.875 19.5469 21.094 18.1798 21.203 16.8048C21.312 15.4298 21.375 14.1251 21.391 12.8907H26.547C26.547 14.1251 26.602 15.4219 26.711 16.7812C26.82 18.1407 27.031 19.4923 27.344 20.836C27.656 22.1642 28.094 23.4532 28.656 24.7032C29.219 25.9376 29.953 27.0469 30.859 28.0312C32.172 26.6094 33.305 25.0001 34.258 23.2032C35.211 21.3907 36 19.4923 36.625 17.5079C37.25 15.5235 37.711 13.4923 38.008 11.4142C38.305 9.33595 38.453 7.29695 38.453 5.29695C38.453 3.62505 38.359 2.01566 38.172 0.468857C39.547 0.531257 40.773 0.625053 41.852 0.750053C42.945 0.875053 43.891 1.00005 44.688 1.12505C45.594 1.28125 46.406 1.43756 47.125 1.59386V7.50005C46.609 7.32815 46.102 7.19535 45.602 7.10165C45.117 6.99225 44.641 6.87505 44.172 6.75005C44.172 10.1095 43.844 13.2267 43.188 16.1017C42.547 18.961 41.648 21.6329 40.492 24.1173C39.336 26.6017 37.953 28.9062 36.344 31.0312C34.734 33.1562 32.969 35.1407 31.047 36.9841C29.672 35.6563 28.391 34.1719 27.203 32.5312C26.031 30.8907 24.953 29.0313 23.969 26.9532C22.953 29.0313 21.844 30.8985 20.641 32.5548C19.453 34.211 18.172 35.7032 16.797 37.0311C14.891 35.1876 13.148 33.2032 11.57 31.0782C9.99201 28.9532 8.64099 26.6485 7.51599 24.1642C6.39099 21.6798 5.51599 19.0079 4.89099 16.1485C4.26599 13.2735 3.953 10.1563 3.953 6.79695C3.391 6.92195 2.84401 7.03915 2.31201 7.14845C1.79701 7.24225 1.28099 7.37505 0.765991 7.54695V1.59386C0.765991 1.60946 0.969 1.57815 1.375 1.50005C1.797 1.42195 2.39101 1.32816 3.15601 1.21886C3.93801 1.09386 4.87499 0.976656 5.96899 0.867256C7.06199 0.742256 8.297 0.640653 9.672 0.562553ZM66.859 0.28125C69.266 0.28125 71.531 0.492254 73.656 0.914154C75.781 1.33595 77.641 1.92195 79.234 2.67195C80.828 3.42195 82.086 4.32816 83.008 5.39066C83.93 6.43756 84.391 7.59385 84.391 8.85945V27.5157C84.391 28.7813 83.93 29.9454 83.008 31.0079C82.086 32.0548 80.828 32.9532 79.234 33.7032C77.641 34.4532 75.781 35.0392 73.656 35.461C71.531 35.8829 69.266 36.0941 66.859 36.0941C65.516 36.0941 64.141 36.0471 62.734 35.9532C61.328 35.8439 59.961 35.711 58.633 35.5548C57.32 35.3829 56.086 35.1876 54.93 34.9689C53.773 34.7501 52.781 34.5157 51.953 34.2657V2.10945C52.781 1.85945 53.773 1.62505 54.93 1.40625C56.086 1.18755 57.32 1.00006 58.633 0.843857C59.961 0.671957 61.328 0.539151 62.734 0.445351C64.141 0.335951 65.516 0.28125 66.859 0.28125ZM66.953 5.57816C65.531 5.57816 64.297 5.62506 63.25 5.71886C62.203 5.79696 61.305 5.90625 60.555 6.04695C59.805 6.17195 59.18 6.31256 58.68 6.46886C58.195 6.60946 57.797 6.73446 57.484 6.84386V29.5312C57.797 29.6562 58.195 29.7892 58.68 29.9298C59.18 30.0704 59.805 30.211 60.555 30.3517C61.305 30.4767 62.203 30.586 63.25 30.6798C64.297 30.7579 65.531 30.797 66.953 30.797C68.703 30.797 70.273 30.6563 71.664 30.3751C73.07 30.0939 74.25 29.7189 75.203 29.2501C76.172 28.7813 76.914 28.2423 77.43 27.6329C77.945 27.0079 78.203 26.3595 78.203 25.6876V10.6876C78.203 10.0157 77.945 9.37506 77.43 8.76566C76.914 8.14066 76.172 7.59385 75.203 7.12505C74.25 6.65625 73.07 6.28125 71.664 6.00005C70.273 5.71885 68.703 5.57816 66.953 5.57816Z" fill="#34547A"/>
</svg>
